<?xml version="1.0"?>
<!DOCTYPE svg PUBLIC '-//W3C//DTD SVG 1.0//EN'
    'http://www.w3.org/TR/2001/REC-SVG-20010904/DTD/svg10.dtd' >

<svg fill-opacity="1" xmlns:xlink="http://www.w3.org/1999/xlink"
     color-rendering="auto" color-interpolation="auto" text-rendering="auto"
     stroke="black" stroke-linecap="square" width="210" stroke-miterlimit="10"
     shape-rendering="auto" stroke-opacity="1" fill="black"
     stroke-dasharray="none" font-weight="normal" stroke-width="1" height="167"
     xmlns="http://www.w3.org/2000/svg" font-family="&apos;Dialog&apos;"
     font-style="normal" stroke-linejoin="miter" font-size="12"
     stroke-dashoffset="0" image-rendering="auto">
    <!-- Generated by TreeGraph 2.15.0-887 beta with Apache Batik SVG Generator
    <http://treegraph.bioinfweb.info/> -->
    <defs id="genericDefs"/>
    <g>
        <g fill="white" text-rendering="optimizeQuality"
           shape-rendering="geometricPrecision" stroke="white">
            <rect x="0" width="210" height="167" y="0" stroke="none"/>
            <path fill="black"
                  d="M5 47.4715 L18 47.4715 L18 48.3219 L5 48.3219 Z"
                  stroke="none"/>
        </g>
        <g text-rendering="optimizeQuality" stroke-width="0.8504"
           shape-rendering="geometricPrecision" stroke-linecap="butt"
           stroke-linejoin="bevel">
            <path fill="none"
                  d="M21 24.378 L20.6929 24.378 L20.2677 24.378 C18.7022 24.378 17.4331 25.6471 17.4331 27.2126 L17.4331 28.063 L17.4331 66.8799 L17.4331 67.7303 C17.4331 69.2959 18.7022 70.565 20.2677 70.565 L20.6929 70.565 L21 70.565"/>
            <path d="M20.6929 23.9528 L93 23.9528 L93 24.8032 L20.6929 24.8032 Z"
                  stroke-width="1" stroke-linecap="square" stroke="none"
                  stroke-linejoin="miter"/>
            <path fill="none"
                  d="M96 15.0236 L95.811 15.0236 L95.3858 15.0236 C93.8203 15.0236 92.5512 16.2927 92.5512 17.8583 L92.5512 18.7087 L92.5512 30.0472 L92.5512 30.8976 C92.5512 32.4632 93.8203 33.7323 95.3858 33.7323 L95.811 33.7323 L96 33.7323"/>
            <path d="M95.811 14.5984 L107.1496 14.5984 L107.1496 15.4488 L95.811 15.4488 Z"
                  stroke-width="1" stroke-linecap="square" stroke="none"
                  stroke-linejoin="miter"/>
        </g>
        <g text-rendering="optimizeQuality" font-size="14.7907"
           shape-rendering="geometricPrecision" font-family="&apos;Arial&apos;">
            <text x="109.9843" xml:space="preserve" y="20.5197" stroke="none">Myrtales</text><path d="M95.811 33.3071 L107.1496 33.3071 L107.1496 34.1575 L95.811 34.1575 Z"
                  stroke="none"/>
            <text x="109.9843" xml:space="preserve" y="39.2283" stroke="none">Geraniales</text><path d="M20.6929 70.1398 L33 70.1398 L33 70.9902 L20.6929 70.9902 Z"
                  stroke="none"/>
            <path fill="none"
                  d="M36 52.4409 L35.7165 52.4409 L35.2913 52.4409 C33.7258 52.4409 32.4567 53.7101 32.4567 55.2756 L32.4567 56.126 L32.4567 85.0039 L32.4567 85.8543 C32.4567 87.4199 33.7258 88.689 35.2913 88.689 L35.7165 88.689 L36 88.689"
                  stroke-width="0.8504" stroke-linecap="butt"
                  stroke-linejoin="bevel"/>
            <path d="M35.7165 52.0158 L107.1496 52.0158 L107.1496 52.8661 L35.7165 52.8661 Z"
                  stroke="none"/>
            <text x="109.9843" xml:space="preserve" y="57.937" stroke="none">Crosomatales</text><path d="M35.7165 88.2638 L48 88.2638 L48 89.1142 L35.7165 89.1142 Z"
                  stroke="none"/>
            <path fill="none"
                  d="M51 71.1496 L50.7402 71.1496 L50.315 71.1496 C48.7494 71.1496 47.4803 72.4187 47.4803 73.9843 L47.4803 74.8346 L47.4803 102.5433 L47.4803 103.3937 C47.4803 104.9592 48.7494 106.2283 50.315 106.2283 L50.7402 106.2283 L51 106.2283"
                  stroke-width="0.8504" stroke-linecap="butt"
                  stroke-linejoin="bevel"/>
            <path d="M50.7402 70.7244 L107.1496 70.7244 L107.1496 71.5748 L50.7402 71.5748 Z"
                  stroke="none"/>
            <text x="109.9843" xml:space="preserve" y="76.6457" stroke="none">Picramniales</text><path d="M50.7402 105.8031 L63 105.8031 L63 106.6535 L50.7402 106.6535 Z"
                  stroke="none"/>
            <path fill="none"
                  d="M66 89.8583 L65.7638 89.8583 L65.3386 89.8583 C63.773 89.8583 62.5039 91.1274 62.5039 92.6929 L62.5039 93.5433 L62.5039 118.9134 L62.5039 119.7638 C62.5039 121.3293 63.773 122.5984 65.3386 122.5984 L65.7638 122.5984 L66 122.5984"
                  stroke-width="0.8504" stroke-linecap="butt"
                  stroke-linejoin="bevel"/>
            <path d="M65.7638 89.4331 L107.1496 89.4331 L107.1496 90.2835 L65.7638 90.2835 Z"
                  stroke="none"/>
            <text x="109.9843" xml:space="preserve" y="95.3543" stroke="none">Sapindales</text><path d="M65.7638 122.1732 L78 122.1732 L78 123.0236 L65.7638 123.0236 Z"
                  stroke="none"/>
            <path fill="none"
                  d="M81 108.5669 L80.7874 108.5669 L80.3622 108.5669 C78.7967 108.5669 77.5276 109.836 77.5276 111.4016 L77.5276 112.252 L77.5276 132.9449 L77.5276 133.7953 C77.5276 135.3608 78.7967 136.6299 80.3622 136.6299 L80.7874 136.6299 L81 136.6299"
                  stroke-width="0.8504" stroke-linecap="butt"
                  stroke-linejoin="bevel"/>
            <path d="M80.7874 108.1417 L107.1496 108.1417 L107.1496 108.9921 L80.7874 108.9921 Z"
                  stroke="none"/>
            <text x="109.9843" xml:space="preserve" y="114.063" stroke="none">Huerteales</text><path d="M80.7874 136.2047 L93 136.2047 L93 137.0551 L80.7874 137.0551 Z"
                  stroke="none"/>
            <path fill="none"
                  d="M96 127.2756 L95.811 127.2756 L95.3858 127.2756 C93.8203 127.2756 92.5512 128.5447 92.5512 130.1102 L92.5512 130.9606 L92.5512 142.2992 L92.5512 143.1496 C92.5512 144.7151 93.8203 145.9842 95.3858 145.9842 L95.811 145.9842 L96 145.9842"
                  stroke-width="0.8504" stroke-linecap="butt"
                  stroke-linejoin="bevel"/>
            <path d="M95.811 126.8504 L107.1496 126.8504 L107.1496 127.7008 L95.811 127.7008 Z"
                  stroke="none"/>
            <text x="109.9843" xml:space="preserve" y="132.7716" stroke="none">Brassicales</text><path d="M95.811 145.559 L107.1496 145.559 L107.1496 146.4094 L95.811 146.4094 Z"
                  stroke="none"/>
            <text x="109.9843" xml:space="preserve" y="151.4803" stroke="none">Malvales</text>
        </g>
    </g>
</svg>
